<svg width="110" height="38" viewBox="0 0 110 38" fill="none" xmlns="http://www.w3.org/2000/svg">
<path d="M74.8849 34.5273H72.5088L69.43 27.1928H59.3289L56.2835 34.5273H53.5449L63.2555 12.7747H65.6818L74.8849 34.5273ZM68.6435 25.2462L64.4993 15.3292L60.2381 25.2462H68.6435Z" fill="white"/>
<path d="M78.4434 34.5273H76.2124V18.4415H78.2148V20.7283C78.6615 19.8716 79.3604 19.1727 80.2171 18.726C80.9708 18.3144 81.8182 18.105 82.6769 18.118V20.2654C81.7975 20.2599 80.9415 20.5485 80.245 21.0853C79.7552 21.4578 79.3278 21.9059 78.9789 22.4128C78.5743 23.1753 78.3817 24.0325 78.4211 24.8948L78.4434 34.5273Z" fill="white"/>
<path d="M86.453 16.5228H84.3335V12.769H86.453V16.5228ZM86.453 34.5273H84.3335V18.4415H86.453V34.5273Z" fill="white"/>
<path d="M90.9709 34.5273H88.8291V12.7747H90.9709V34.5273Z" fill="white"/>
<path d="M109.913 34.5274H107.821V32.0175C107.048 32.9656 106.064 33.7196 104.947 34.2194C103.83 34.7191 102.612 34.9507 101.39 34.8955C100.32 34.8711 99.2656 34.6313 98.29 34.1905C97.3145 33.7497 96.4378 33.1169 95.7121 32.3298C94.1792 30.7204 93.3387 28.574 93.371 26.3516C93.4033 24.1292 94.306 22.0081 95.8851 20.4439C96.6534 19.6321 97.5892 18.9971 98.6274 18.583C99.6657 18.1689 100.782 17.9855 101.898 18.0456C102.982 18.0691 104.05 18.3114 105.038 18.758C106.027 19.2047 106.914 19.8464 107.648 20.6447C108.415 21.404 109.014 22.3166 109.404 23.3229C109.794 24.3292 109.967 25.4066 109.913 26.4845V34.5274ZM95.5448 26.3172C95.5167 27.1344 95.65 27.9492 95.9371 28.7148C96.2242 29.4805 96.6595 30.182 97.2181 30.7793C97.7465 31.3814 98.3917 31.8699 99.1147 32.2151C99.8376 32.5602 100.623 32.7549 101.424 32.7872C102.265 32.8373 103.106 32.698 103.886 32.3794C104.666 32.0608 105.365 31.5712 105.93 30.9466C106.537 30.3358 107.012 29.6078 107.328 28.807C107.643 28.0062 107.792 27.1495 107.765 26.2893C107.759 24.6627 107.117 23.1031 105.975 21.9443C105.442 21.3628 104.791 20.901 104.066 20.5895C103.341 20.2779 102.558 20.1238 101.769 20.1372C100.955 20.1214 100.147 20.2738 99.3945 20.5847C98.6421 20.8957 97.962 21.3585 97.3966 21.9443C96.8082 22.5101 96.3408 23.1893 96.0225 23.941C95.7042 24.6926 95.5417 25.5009 95.5448 26.3172Z" fill="white"/>
<path d="M0 37.1543C0.175438 36.8383 0.374963 36.5362 0.596804 36.2508C1.43902 35.0516 2.27009 33.8468 3.11788 32.6532C3.61429 31.9504 4.12185 31.2532 4.61826 30.556C5.48279 29.3345 6.33616 28.113 7.20069 26.8971C7.97598 25.8151 8.75685 24.733 9.52656 23.6509C10.5528 22.2156 11.5754 20.7803 12.5942 19.345C13.5759 17.9562 14.552 16.5562 15.5392 15.1786C16.0022 14.5204 16.4874 13.879 16.9504 13.2208C17.5472 12.3786 18.1384 11.5475 18.7352 10.683C19.332 9.81847 19.9065 9.00972 20.4921 8.21769C21.5296 6.76752 22.5652 5.3192 23.5989 3.87274L25.5287 1.16759C25.8578 0.715808 25.8578 0.710231 26.1925 1.16759C27.1741 2.50064 28.1614 3.87831 29.1374 5.23367C29.9797 6.40497 30.8107 7.59858 31.6641 8.75872C31.8537 9.00972 31.8147 9.13242 31.625 9.31648L29.2657 11.369L25.0602 15.0726C24.1901 15.8423 23.3311 16.6287 22.461 17.3984L18.4061 21.0072C16.9671 22.2789 15.5169 23.5394 14.0779 24.8167C12.9624 25.8039 11.8468 26.7856 10.7313 27.7616C9.6158 28.7377 8.36642 29.8867 7.15607 30.9465C6.38079 31.6381 5.59434 32.313 4.81348 32.999C3.93779 33.7687 3.06211 34.5496 2.18642 35.3249L0.167328 37.1153C0.146746 37.1381 0.119687 37.154 0.0897788 37.161C0.0598711 37.168 0.0285447 37.1657 0 37.1543H0Z" fill="white"/>
<path d="M5.60547 34.2931C6.06841 33.8971 6.5202 33.5848 6.94967 33.2445C7.74727 32.6198 8.51698 31.9505 9.33131 31.3481C10.1456 30.7458 10.8428 30.1713 11.607 29.5968C12.3711 29.0223 13.0627 28.4422 13.7878 27.8677C15.1209 26.8191 16.4651 25.7873 17.7981 24.7443C18.8579 23.9132 19.912 23.071 20.9718 22.2287C22.0315 21.3865 23.108 20.6057 24.1399 19.7523C24.8092 19.1945 25.512 18.7037 26.1869 18.1627C26.7446 17.7053 27.347 17.2591 27.9215 16.8073C28.8251 16.099 29.7231 15.385 30.6266 14.6878L32.378 13.3213C32.8744 12.942 33.3708 12.5572 33.8561 12.1556C34.0122 12.0273 34.0624 12.0887 34.1461 12.2002L35.0887 13.5054C35.7803 14.4536 36.4831 15.4073 37.1692 16.3611C37.6712 17.0583 38.1676 17.7555 38.6528 18.4639C38.9763 18.9212 38.9707 18.938 38.4688 19.1666C37.6098 19.5682 36.7453 19.9475 35.8807 20.3435L33.2035 21.6096C32.4394 21.961 31.6696 22.3013 30.9111 22.6526C30.2808 22.9427 29.6561 23.255 29.0259 23.5451C28.5183 23.7849 28.0052 24.0136 27.492 24.2478L25.1996 25.302L22.8626 26.4175C22.0706 26.7857 21.2786 27.1649 20.4865 27.5331C19.6945 27.9012 18.9638 28.1577 18.222 28.5259C17.2125 29 16.2085 29.4964 15.1822 29.9482C14.1559 30.3999 13.1408 30.9298 12.0811 31.3426C11.6851 31.4987 11.3114 31.7163 10.9265 31.9003C10.5417 32.0844 10.2405 32.2406 9.88907 32.3967C9.22534 32.6923 8.57276 33.0214 7.89787 33.3059C7.37536 33.5871 6.83287 33.8294 6.27478 34.031C6.06841 34.0812 5.92339 34.2931 5.60547 34.2931Z" fill="white"/>
<path d="M13.8662 31.956C14.2815 31.7498 14.7123 31.5764 15.1546 31.4373C16.1066 31.0655 17.064 30.6936 18.0271 30.3218C18.808 30.0262 19.6 29.764 20.3864 29.4517C20.9052 29.2565 21.4127 29.0389 21.9314 28.8437C22.4502 28.6485 23.1027 28.4087 23.6884 28.1911C24.7537 27.7951 25.819 27.4047 26.8732 26.992C28.156 26.4937 29.4408 26.0066 30.7273 25.5306C31.6532 25.1848 32.5624 24.7832 33.5161 24.4597C34.336 24.1753 35.1281 23.8239 35.948 23.5562C36.4165 23.4056 36.8683 23.2048 37.3256 23.0319C37.9838 22.7753 38.6364 22.5187 39.3001 22.2677C39.7798 22.0837 40.2762 21.9331 40.7503 21.71C40.7815 21.6896 40.8167 21.6762 40.8536 21.6705C40.8904 21.6649 40.928 21.6671 40.9639 21.6771C40.9998 21.6872 41.0331 21.7047 41.0617 21.7287C41.0903 21.7526 41.1134 21.7824 41.1296 21.8159L43.0817 24.5099C43.6395 25.2852 44.1973 26.0661 44.755 26.8358C44.8666 26.992 44.8554 27.0477 44.6658 27.0756C43.8012 27.1983 42.9479 27.3545 42.0889 27.4772C41.5312 27.5553 40.9734 27.6613 40.4547 27.7505C39.6236 27.8788 38.7814 28.0182 37.9615 28.1409C37.4037 28.219 36.846 28.3306 36.2882 28.4198C35.485 28.5425 34.693 28.7154 33.8787 28.7935C33.3209 28.8493 32.7632 28.9943 32.2054 29.0724C31.6476 29.1505 31.2516 29.2174 30.7775 29.3011C30.3034 29.3848 29.701 29.474 29.1656 29.5632L27.6429 29.831C27.0851 29.9146 26.5274 30.0206 26.0031 30.1043L23.482 30.5003C22.9242 30.5839 22.3665 30.6899 21.8087 30.7792C21 30.9074 20.1856 31.0469 19.3713 31.1584C18.8136 31.2365 18.2558 31.3425 17.7315 31.4317C16.9227 31.5656 16.1084 31.705 15.2941 31.8166C14.8869 31.8724 14.4797 31.9505 14.0726 32.0062C14.0369 32.018 13.9987 32.0195 13.9622 32.0107C13.9257 32.0018 13.8925 31.9829 13.8662 31.956Z" fill="white"/>
<path d="M26.3545 31.1082C26.3844 31.0768 26.4209 31.0524 26.4615 31.037C26.502 31.0216 26.5455 31.0154 26.5888 31.019C26.9848 30.9911 27.3808 30.9911 27.7768 30.9521C28.7975 30.8572 29.8182 30.913 30.8445 30.8015C31.4803 30.74 32.1189 30.712 32.7576 30.7178C33.6277 30.7178 34.4922 30.6007 35.3623 30.5561C35.7249 30.5561 36.0818 30.5561 36.4444 30.5561C37.1806 30.5114 37.9113 30.4501 38.642 30.3999C38.7423 30.3943 38.8428 30.3943 38.9432 30.3999C39.975 30.3999 41.0013 30.2883 42.0332 30.2326C42.3678 30.2326 42.7025 30.2326 43.0371 30.2326C43.8849 30.1879 44.7104 30.1154 45.5861 30.0708C46.0267 30.0708 46.4729 30.0708 46.9136 30.0708C47.0195 30.0708 47.0697 30.1377 47.1255 30.2102C47.7781 31.125 48.4363 32.0453 49.1 32.9544C49.4848 33.5122 49.892 34.0142 50.249 34.5664C50.288 34.6277 50.3661 34.6723 50.3103 34.7504C50.2545 34.8285 50.1932 34.7504 50.1318 34.7504C49.2394 34.6166 48.347 34.4938 47.449 34.3488C46.8913 34.2596 46.3335 34.1648 45.7255 34.0978C45.3334 34.0702 44.9438 34.0143 44.5598 33.9305C44.1973 33.8301 43.8236 33.8803 43.4443 33.7911C42.9813 33.6795 42.4961 33.6684 42.0332 33.5512C41.5702 33.4341 40.9901 33.4006 40.4714 33.317C39.5957 33.1775 38.7145 33.0604 37.8388 32.921C37.281 32.8261 36.7233 32.7257 36.1153 32.67C35.736 32.6309 35.3512 32.5696 34.9719 32.5138C34.2747 32.4134 33.5719 32.313 32.8747 32.2014C32.0437 32.0732 31.2014 31.9003 30.3871 31.8054C29.8293 31.7385 29.2325 31.6437 28.658 31.5544C28.2105 31.4974 27.7671 31.4117 27.3306 31.2979C27.1028 31.2505 26.8714 31.2225 26.6389 31.2142C26.5866 31.2189 26.5339 31.2119 26.4847 31.1935C26.4355 31.1752 26.391 31.146 26.3545 31.1082Z" fill="white"/>
</svg>
