<svg width="110" height="38" viewBox="0 0 110 38" fill="none" xmlns="http://www.w3.org/2000/svg">
<path d="M74.8851 34.5273H72.509L69.4302 27.1928H59.3291L56.2838 34.5273H53.5452L63.2558 12.7747H65.682L74.8851 34.5273ZM68.6438 25.2462L64.4996 15.3292L60.2383 25.2462H68.6438Z" fill="#1C75BC"/>
<path d="M78.4434 34.5273H76.2124V18.4415H78.2148V20.7283C78.6615 19.8716 79.3604 19.1727 80.2171 18.726C80.9708 18.3144 81.8182 18.105 82.6769 18.118V20.2654C81.7975 20.2599 80.9415 20.5485 80.245 21.0853C79.7552 21.4578 79.3278 21.9059 78.9789 22.4128C78.5743 23.1753 78.3817 24.0325 78.4211 24.8948L78.4434 34.5273Z" fill="#1C75BC"/>
<path d="M86.4527 16.5228H84.3333V12.769H86.4527V16.5228ZM86.4527 34.5273H84.3333V18.4415H86.4527V34.5273Z" fill="#1C75BC"/>
<path d="M90.9709 34.5273H88.8291V12.7747H90.9709V34.5273Z" fill="#1C75BC"/>
<path d="M109.912 34.5274H107.821V32.0175C107.048 32.9656 106.063 33.7196 104.947 34.2194C103.83 34.7191 102.612 34.9507 101.39 34.8955C100.32 34.8711 99.2653 34.6313 98.2898 34.1905C97.3143 33.7497 96.4375 33.1169 95.7119 32.3298C94.179 30.7204 93.3384 28.574 93.3708 26.3516C93.4031 24.1292 94.3057 22.0081 95.8848 20.4439C96.6532 19.6321 97.5889 18.9971 98.6272 18.583C99.6654 18.1689 100.781 17.9855 101.897 18.0456C102.982 18.0691 104.05 18.3114 105.038 18.758C106.026 19.2047 106.914 19.8464 107.648 20.6447C108.415 21.404 109.013 22.3166 109.404 23.3229C109.794 24.3292 109.967 25.4066 109.912 26.4845V34.5274ZM95.5446 26.3172C95.5164 27.1344 95.6497 27.9492 95.9369 28.7148C96.224 29.4805 96.6593 30.182 97.2179 30.7793C97.7462 31.3814 98.3915 31.8699 99.1144 32.2151C99.8374 32.5602 100.623 32.7549 101.423 32.7872C102.264 32.8373 103.106 32.698 103.886 32.3794C104.666 32.0608 105.365 31.5712 105.93 30.9466C106.536 30.3358 107.012 29.6078 107.327 28.807C107.643 28.0062 107.792 27.1495 107.765 26.2893C107.759 24.6627 107.116 23.1031 105.975 21.9443C105.441 21.3628 104.791 20.901 104.066 20.5895C103.341 20.2779 102.558 20.1238 101.769 20.1372C100.955 20.1214 100.147 20.2738 99.3943 20.5847C98.6419 20.8957 97.9617 21.3585 97.3963 21.9443C96.808 22.5101 96.3406 23.1893 96.0223 23.941C95.704 24.6926 95.5415 25.5009 95.5446 26.3172Z" fill="#1C75BC"/>
<path d="M0 37.1543C0.175438 36.8383 0.374963 36.5362 0.596804 36.2508C1.43902 35.0516 2.27009 33.8468 3.11788 32.6532C3.61429 31.9504 4.12185 31.2532 4.61826 30.556C5.48279 29.3345 6.33616 28.113 7.20069 26.8971C7.97598 25.8151 8.75685 24.733 9.52656 23.6509C10.5528 22.2156 11.5754 20.7803 12.5942 19.345C13.5759 17.9562 14.552 16.5562 15.5392 15.1786C16.0022 14.5204 16.4874 13.879 16.9504 13.2208C17.5472 12.3786 18.1384 11.5475 18.7352 10.683C19.332 9.81847 19.9065 9.00972 20.4921 8.21769C21.5296 6.76752 22.5652 5.3192 23.5989 3.87274L25.5287 1.16759C25.8578 0.715808 25.8578 0.710231 26.1925 1.16759C27.1741 2.50064 28.1614 3.87831 29.1374 5.23367C29.9797 6.40497 30.8107 7.59858 31.6641 8.75872C31.8537 9.00972 31.8147 9.13242 31.625 9.31648L29.2657 11.369L25.0602 15.0726C24.1901 15.8423 23.3311 16.6287 22.461 17.3984L18.4061 21.0072C16.9671 22.2789 15.5169 23.5394 14.0779 24.8167C12.9624 25.8039 11.8468 26.7856 10.7313 27.7616C9.6158 28.7377 8.36642 29.8867 7.15607 30.9465C6.38079 31.6381 5.59434 32.313 4.81348 32.999C3.93779 33.7687 3.06211 34.5496 2.18642 35.3249L0.167328 37.1153C0.146746 37.1381 0.119687 37.154 0.0897788 37.161C0.0598711 37.168 0.0285447 37.1657 0 37.1543H0Z" fill="url(#paint0_linear_1_465)"/>
<path d="M5.60547 34.2931C6.06841 33.8971 6.5202 33.5848 6.94967 33.2445C7.74727 32.6198 8.51698 31.9505 9.33131 31.3481C10.1456 30.7458 10.8428 30.1713 11.607 29.5968C12.3711 29.0223 13.0627 28.4422 13.7878 27.8677C15.1209 26.8191 16.4651 25.7873 17.7981 24.7443C18.8579 23.9132 19.912 23.071 20.9718 22.2287C22.0315 21.3865 23.108 20.6057 24.1399 19.7523C24.8092 19.1945 25.512 18.7037 26.1869 18.1627C26.7446 17.7053 27.347 17.2591 27.9215 16.8073C28.8251 16.099 29.7231 15.385 30.6266 14.6878L32.378 13.3213C32.8744 12.942 33.3708 12.5572 33.8561 12.1556C34.0122 12.0273 34.0624 12.0887 34.1461 12.2002L35.0887 13.5054C35.7803 14.4536 36.4831 15.4073 37.1692 16.3611C37.6712 17.0583 38.1676 17.7555 38.6528 18.4639C38.9763 18.9212 38.9707 18.938 38.4688 19.1666C37.6098 19.5682 36.7453 19.9475 35.8807 20.3435L33.2035 21.6096C32.4394 21.961 31.6696 22.3013 30.9111 22.6526C30.2808 22.9427 29.6561 23.255 29.0259 23.5451C28.5183 23.7849 28.0052 24.0136 27.492 24.2478L25.1996 25.302L22.8626 26.4175C22.0706 26.7857 21.2786 27.1649 20.4865 27.5331C19.6945 27.9012 18.9638 28.1577 18.222 28.5259C17.2125 29 16.2085 29.4964 15.1822 29.9482C14.1559 30.3999 13.1408 30.9298 12.0811 31.3426C11.6851 31.4987 11.3114 31.7163 10.9265 31.9003C10.5417 32.0844 10.2405 32.2406 9.88907 32.3967C9.22534 32.6923 8.57276 33.0214 7.89787 33.3059C7.37536 33.5871 6.83287 33.8294 6.27478 34.031C6.06841 34.0812 5.92339 34.2931 5.60547 34.2931Z" fill="url(#paint1_linear_1_465)"/>
<path d="M13.866 31.956C14.2813 31.7498 14.712 31.5764 15.1544 31.4373C16.1063 31.0655 17.0638 30.6936 18.0269 30.3218C18.8077 30.0262 19.5997 29.764 20.3862 29.4517C20.9049 29.2565 21.4125 29.0389 21.9312 28.8437C22.4499 28.6485 23.1025 28.4087 23.6881 28.1911C24.7535 27.7951 25.8188 27.4047 26.873 26.992C28.1558 26.4937 29.4405 26.0066 30.7271 25.5306C31.653 25.1848 32.5621 24.7832 33.5159 24.4597C34.3358 24.1753 35.1278 23.8239 35.9477 23.5562C36.4162 23.4056 36.868 23.2048 37.3254 23.0319C37.9836 22.7753 38.6361 22.5187 39.2999 22.2677C39.7795 22.0837 40.2759 21.9331 40.75 21.71C40.7813 21.6896 40.8165 21.6762 40.8533 21.6705C40.8902 21.6649 40.9278 21.6671 40.9637 21.6771C40.9995 21.6872 41.0329 21.7047 41.0615 21.7287C41.09 21.7526 41.1132 21.7824 41.1293 21.8159L43.0815 24.5099C43.6392 25.2852 44.197 26.0661 44.7548 26.8358C44.8663 26.992 44.8552 27.0477 44.6655 27.0756C43.801 27.1983 42.9476 27.3545 42.0887 27.4772C41.5309 27.5553 40.9732 27.6613 40.4544 27.7505C39.6234 27.8788 38.7811 28.0182 37.9612 28.1409C37.4035 28.219 36.8457 28.3306 36.288 28.4198C35.4848 28.5425 34.6928 28.7154 33.8784 28.7935C33.3207 28.8493 32.7629 28.9943 32.2051 29.0724C31.6474 29.1505 31.2514 29.2174 30.7773 29.3011C30.3032 29.3848 29.7008 29.474 29.1654 29.5632L27.6427 29.831C27.0849 29.9146 26.5271 30.0206 26.0028 30.1043L23.4818 30.5003C22.924 30.5839 22.3662 30.6899 21.8085 30.7792C20.9997 30.9074 20.1854 31.0469 19.3711 31.1584C18.8133 31.2365 18.2555 31.3425 17.7313 31.4317C16.9225 31.5656 16.1082 31.705 15.2938 31.8166C14.8867 31.8724 14.4795 31.9505 14.0723 32.0062C14.0367 32.018 13.9985 32.0195 13.962 32.0107C13.9255 32.0018 13.8922 31.9829 13.866 31.956Z" fill="url(#paint2_linear_1_465)"/>
<path d="M26.3542 31.1082C26.3841 31.0768 26.4207 31.0524 26.4612 31.037C26.5018 31.0216 26.5453 31.0154 26.5885 31.019C26.9845 30.9911 27.3805 30.9911 27.7765 30.9521C28.7972 30.8572 29.8179 30.913 30.8442 30.8015C31.48 30.74 32.1186 30.712 32.7573 30.7178C33.6275 30.7178 34.492 30.6007 35.3621 30.5561C35.7246 30.5561 36.0816 30.5561 36.4441 30.5561C37.1804 30.5114 37.9111 30.4501 38.6417 30.3999C38.742 30.3943 38.8426 30.3943 38.9429 30.3999C39.9748 30.3999 41.0011 30.2883 42.0329 30.2326C42.3676 30.2326 42.7022 30.2326 43.0369 30.2326C43.8847 30.1879 44.7102 30.1154 45.5858 30.0708C46.0265 30.0708 46.4727 30.0708 46.9133 30.0708C47.0193 30.0708 47.0695 30.1377 47.1253 30.2102C47.7778 31.125 48.436 32.0453 49.0997 32.9544C49.4846 33.5122 49.8918 34.0142 50.2487 34.5664C50.2878 34.6277 50.3659 34.6723 50.3101 34.7504C50.2543 34.8285 50.193 34.7504 50.1316 34.7504C49.2392 34.6166 48.3468 34.4938 47.4488 34.3488C46.891 34.2596 46.3333 34.1648 45.7253 34.0978C45.3332 34.0702 44.9436 34.0143 44.5596 33.9305C44.197 33.8301 43.8233 33.8803 43.444 33.7911C42.9811 33.6795 42.4959 33.6684 42.0329 33.5512C41.57 33.4341 40.9899 33.4006 40.4712 33.317C39.5955 33.1775 38.7142 33.0604 37.8385 32.921C37.2808 32.8261 36.723 32.7257 36.1151 32.67C35.7358 32.6309 35.3509 32.5696 34.9717 32.5138C34.2745 32.4134 33.5717 32.313 32.8745 32.2014C32.0434 32.0732 31.2012 31.9003 30.3869 31.8054C29.8291 31.7385 29.2323 31.6437 28.6578 31.5544C28.2103 31.4974 27.7669 31.4117 27.3303 31.2979C27.1026 31.2505 26.8712 31.2225 26.6387 31.2142C26.5864 31.2189 26.5337 31.2119 26.4844 31.1935C26.4352 31.1752 26.3907 31.146 26.3542 31.1082Z" fill="url(#paint3_linear_1_465)"/>
<defs>
<linearGradient id="paint0_linear_1_465" x1="30.0577" y1="3.31497" x2="12.9791" y2="25.5362" gradientUnits="userSpaceOnUse">
<stop stop-color="#1C75BC"/>
<stop offset="1" stop-color="#8DC63F"/>
</linearGradient>
<linearGradient id="paint1_linear_1_465" x1="36.3939" y1="8.18433" x2="19.3097" y2="30.4055" gradientUnits="userSpaceOnUse">
<stop stop-color="#1C75BC"/>
<stop offset="1" stop-color="#8DC63F"/>
</linearGradient>
<linearGradient id="paint2_linear_1_465" x1="42.2504" y1="12.6854" x2="25.1718" y2="34.9066" gradientUnits="userSpaceOnUse">
<stop stop-color="#1C75BC"/>
<stop offset="1" stop-color="#8DC63F"/>
</linearGradient>
<linearGradient id="paint3_linear_1_465" x1="49.5571" y1="18.302" x2="32.4785" y2="40.5232" gradientUnits="userSpaceOnUse">
<stop stop-color="#1C75BC"/>
<stop offset="1" stop-color="#8DC63F"/>
</linearGradient>
</defs>
</svg>
