<svg width="15" height="17" viewBox="0 0 15 17" fill="none" xmlns="http://www.w3.org/2000/svg">
<path d="M14.7947 14.186C14.8734 14.2871 14.9289 14.3963 14.9604 14.5137C15.0039 14.6763 15.0014 14.839 14.9526 15.0033C14.9041 15.167 14.8118 15.3072 14.6762 15.4232L14.0373 15.961C13.7869 16.1671 13.5266 16.3378 13.2564 16.4731C12.9863 16.6084 12.7053 16.7154 12.413 16.7937C11.943 16.9196 11.4579 16.9659 10.9573 16.9325C10.4568 16.8991 9.95799 16.7929 9.46105 16.6141C8.96412 16.4354 8.47653 16.1885 7.99895 15.8742C7.52126 15.5595 7.0689 15.1873 6.64261 14.757C6.38214 14.5249 6.10174 14.2555 5.80099 13.9491C5.54587 13.6879 5.24995 13.3725 4.91271 13.0025C4.57557 12.6329 4.22397 12.216 3.85738 11.7534C3.4856 11.2917 3.17932 10.8835 2.93896 10.5288C2.69848 10.1736 2.50618 9.87656 2.3629 9.63746C2.19529 9.35826 2.06625 9.1149 1.9759 8.9078C1.74941 8.53891 1.55473 8.16375 1.39229 7.78222C1.22986 7.40069 1.09674 7.01538 0.992626 6.62682C0.856486 6.11874 0.776656 5.61639 0.752486 5.11905C0.728316 4.62171 0.767878 4.1426 0.870327 3.68194C0.972777 3.22129 1.14325 2.78813 1.38175 2.38246C1.62024 1.97679 1.93383 1.61483 2.32227 1.29573L2.95395 0.771122C3.05455 0.692111 3.16213 0.637482 3.27616 0.606927C3.43665 0.563924 3.59805 0.568209 3.76045 0.620205C3.92244 0.672314 4.05927 0.767377 4.17021 0.906043L6.40042 3.6831C6.47955 3.78412 6.53418 3.8917 6.56473 4.00573C6.60966 4.1734 6.60811 4.33994 6.55967 4.50547C6.51123 4.671 6.41822 4.81045 6.28012 4.9235L5.03034 5.96092C4.86518 6.09797 4.75511 6.26326 4.69952 6.45787C4.64435 6.65236 4.64241 6.84617 4.69424 7.0396C4.73363 7.18658 4.79808 7.31733 4.88815 7.43216L8.66027 12.149C8.80703 12.3302 8.97382 12.4475 9.16149 12.5009C9.34875 12.5544 9.53788 12.5558 9.72793 12.5048C9.85759 12.4701 9.98186 12.4051 10.1009 12.3103L11.3506 11.2729C11.4501 11.1946 11.5567 11.1398 11.6707 11.1093C11.8279 11.0672 11.9884 11.0717 12.1521 11.1233C12.3157 11.175 12.454 11.2687 12.5666 11.4052L14.7947 14.186Z" fill="white"/>
</svg>
