<svg width="72" height="73" viewBox="0 0 72 73" fill="none" xmlns="http://www.w3.org/2000/svg">
<rect y="0.630859" width="71.4868" height="71.4868" rx="10" fill="white"/>
<g clip-path="url(#clip0_1_183)">
<rect x="20.7432" y="21.3745" width="30" height="30" rx="10" fill="white"/>
<path d="M40.7432 25.1245H21.9932V41.3745H40.7432V25.1245Z" stroke="#8DC63F" stroke-width="2" stroke-linecap="round" stroke-linejoin="round"/>
<path d="M40.7432 31.3745H45.7432L49.4932 35.1245V41.3745H40.7432V31.3745Z" stroke="#8DC63F" stroke-width="2" stroke-linecap="round" stroke-linejoin="round"/>
<path d="M27.6182 47.6245C29.3441 47.6245 30.7432 46.2254 30.7432 44.4995C30.7432 42.7736 29.3441 41.3745 27.6182 41.3745C25.8923 41.3745 24.4932 42.7736 24.4932 44.4995C24.4932 46.2254 25.8923 47.6245 27.6182 47.6245Z" stroke="#8DC63F" stroke-width="2" stroke-linecap="round" stroke-linejoin="round"/>
<path d="M43.8682 47.6245C45.5941 47.6245 46.9932 46.2254 46.9932 44.4995C46.9932 42.7736 45.5941 41.3745 43.8682 41.3745C42.1423 41.3745 40.7432 42.7736 40.7432 44.4995C40.7432 46.2254 42.1423 47.6245 43.8682 47.6245Z" stroke="#8DC63F" stroke-width="2" stroke-linecap="round" stroke-linejoin="round"/>
</g>
<defs>
<clipPath id="clip0_1_183">
<rect x="20.7432" y="21.3745" width="30" height="30" rx="10" fill="white"/>
</clipPath>
</defs>
</svg>
