<svg width="72" height="73" viewBox="0 0 72 73" fill="none" xmlns="http://www.w3.org/2000/svg">
<rect y="0.630859" width="71.4868" height="71.4868" rx="10" fill="white"/>
<g clip-path="url(#clip0_1_193)">
<path d="M41.9932 43.8745C41.9932 42.2169 41.3347 40.6272 40.1626 39.4551C38.9905 38.283 37.4008 37.6245 35.7432 37.6245C34.0856 37.6245 32.4958 38.283 31.3237 39.4551C30.1516 40.6272 29.4932 42.2169 29.4932 43.8745" stroke="#8DC63F" stroke-width="2" stroke-linecap="round" stroke-linejoin="round"/>
<path d="M35.7432 32.6245V23.8745" stroke="#8DC63F" stroke-width="2" stroke-linecap="round" stroke-linejoin="round"/>
<path d="M26.0181 34.1495L27.7931 35.9245" stroke="#8DC63F" stroke-width="2" stroke-linecap="round" stroke-linejoin="round"/>
<path d="M21.9932 43.8745H24.4932" stroke="#8DC63F" stroke-width="2" stroke-linecap="round" stroke-linejoin="round"/>
<path d="M46.9932 43.8745H49.4932" stroke="#8DC63F" stroke-width="2" stroke-linecap="round" stroke-linejoin="round"/>
<path d="M43.6934 35.9245L45.4684 34.1495" stroke="#8DC63F" stroke-width="2" stroke-linecap="round" stroke-linejoin="round"/>
<path d="M49.4932 48.8745H21.9932" stroke="#8DC63F" stroke-width="2" stroke-linecap="round" stroke-linejoin="round"/>
<path d="M40.7432 27.6245L35.7432 32.6245L30.7432 27.6245" stroke="#8DC63F" stroke-width="2" stroke-linecap="round" stroke-linejoin="round"/>
</g>
<defs>
<clipPath id="clip0_1_193">
<rect width="30" height="30" fill="white" transform="translate(20.7432 21.3745)"/>
</clipPath>
</defs>
</svg>
