<svg width="72" height="72" viewBox="0 0 72 72" fill="none" xmlns="http://www.w3.org/2000/svg">
<rect y="0.272461" width="71.4868" height="71.4868" rx="10" fill="white"/>
<g clip-path="url(#clip0_1_207)">
<path d="M41.9932 47.2661V44.7661C41.9932 43.44 41.4664 42.1683 40.5287 41.2306C39.591 40.2929 38.3192 39.7661 36.9932 39.7661H26.9932C25.6671 39.7661 24.3953 40.2929 23.4576 41.2306C22.5199 42.1683 21.9932 43.44 21.9932 44.7661V47.2661" stroke="#8DC63F" stroke-width="2" stroke-linecap="round" stroke-linejoin="round"/>
<path d="M31.9932 34.7661C34.7546 34.7661 36.9932 32.5275 36.9932 29.7661C36.9932 27.0047 34.7546 24.7661 31.9932 24.7661C29.2317 24.7661 26.9932 27.0047 26.9932 29.7661C26.9932 32.5275 29.2317 34.7661 31.9932 34.7661Z" stroke="#8DC63F" stroke-width="2" stroke-linecap="round" stroke-linejoin="round"/>
<path d="M49.4932 47.2661V44.7661C49.4923 43.6582 49.1236 42.5821 48.4449 41.7065C47.7661 40.8309 46.8158 40.2055 45.7432 39.9286" stroke="#8DC63F" stroke-width="2" stroke-linecap="round" stroke-linejoin="round"/>
<path d="M40.7432 24.9286C41.8187 25.204 42.772 25.8295 43.4527 26.7065C44.1335 27.5835 44.503 28.6621 44.503 29.7723C44.503 30.8826 44.1335 31.9612 43.4527 32.8382C42.772 33.7152 41.8187 34.3407 40.7432 34.6161" stroke="#8DC63F" stroke-width="2" stroke-linecap="round" stroke-linejoin="round"/>
</g>
<defs>
<clipPath id="clip0_1_207">
<rect width="30" height="30" fill="white" transform="translate(20.7432 21.0161)"/>
</clipPath>
</defs>
</svg>
