<svg width="31" height="31" viewBox="0 0 31 31" fill="none" xmlns="http://www.w3.org/2000/svg">
<g clip-path="url(#clip0_27_1249)">
<path d="M22.0303 26.9277V24.4277C22.0303 23.1017 21.5035 21.8299 20.5658 20.8922C19.6281 19.9545 18.3564 19.4277 17.0303 19.4277H7.03027C5.70419 19.4277 4.43242 19.9545 3.49474 20.8922C2.55706 21.8299 2.03027 23.1017 2.03027 24.4277V26.9277" stroke="#8DC63F" stroke-width="2" stroke-linecap="round" stroke-linejoin="round"/>
<path d="M12.0303 14.4277C14.7917 14.4277 17.0303 12.1892 17.0303 9.42773C17.0303 6.66631 14.7917 4.42773 12.0303 4.42773C9.26885 4.42773 7.03027 6.66631 7.03027 9.42773C7.03027 12.1892 9.26885 14.4277 12.0303 14.4277Z" stroke="#8DC63F" stroke-width="2" stroke-linecap="round" stroke-linejoin="round"/>
<path d="M29.5303 26.9277V24.4277C29.5294 23.3199 29.1607 22.2437 28.482 21.3681C27.8032 20.4925 26.8529 19.8672 25.7803 19.5902" stroke="#8DC63F" stroke-width="2" stroke-linecap="round" stroke-linejoin="round"/>
<path d="M20.7803 4.59021C21.8558 4.86559 22.8091 5.49109 23.4898 6.3681C24.1706 7.24511 24.5401 8.32375 24.5401 9.43396C24.5401 10.5442 24.1706 11.6228 23.4898 12.4998C22.8091 13.3768 21.8558 14.0023 20.7803 14.2777" stroke="#8DC63F" stroke-width="2" stroke-linecap="round" stroke-linejoin="round"/>
</g>
<defs>
<clipPath id="clip0_27_1249">
<rect width="30" height="30" fill="white" transform="translate(0.780273 0.677734)"/>
</clipPath>
</defs>
</svg>
