<svg width="321" height="97" viewBox="0 0 321 97" fill="none" xmlns="http://www.w3.org/2000/svg">
<g clip-path="url(#clip0_40_991)">
<path d="M229.39 30.7863V36.3703H236.628V41.0523H229.39V50.9532H224.418V26.1043H238.067V30.7863H229.39Z" fill="#9BCB46"/>
<path d="M239.517 38.5288C239.517 31.2159 245.133 25.6748 252.628 25.6748C260.124 25.6748 265.74 31.2159 265.74 38.5288C265.74 45.8417 260.081 51.3935 252.628 51.3935C245.176 51.3935 239.517 45.8417 239.517 38.5288ZM260.628 38.5288C260.628 33.922 257.171 30.4642 252.628 30.4642C248.086 30.4642 244.596 33.922 244.596 38.5288C244.596 43.1356 248.054 46.5934 252.628 46.5934C257.203 46.5934 260.628 43.1356 260.628 38.5288Z" fill="#9BCB46"/>
<path d="M267.748 38.5288C267.748 31.2159 273.364 25.6748 280.86 25.6748C288.355 25.6748 293.971 31.2159 293.971 38.5288C293.971 45.8417 288.312 51.3935 280.86 51.3935C273.407 51.3935 267.748 45.8417 267.748 38.5288ZM288.86 38.5288C288.86 33.922 285.402 30.4642 280.86 30.4642C276.317 30.4642 272.827 33.922 272.827 38.5288C272.827 43.1356 276.285 46.5934 280.86 46.5934C285.434 46.5934 288.86 43.1356 288.86 38.5288Z" fill="#9BCB46"/>
<path d="M319.604 38.5288C319.604 45.6269 314.17 50.9532 306.921 50.9532H297.192V26.1043H306.921C314.159 26.1043 319.604 31.4306 319.604 38.5288ZM314.492 38.5288C314.492 34.0938 311.217 30.7863 306.825 30.7863H302.175V46.2712H306.825C311.217 46.2712 314.492 42.953 314.492 38.5288Z" fill="#9BCB46"/>
<path d="M272.827 68.3174C271.205 68.3174 269.938 69.3483 269.52 70.8839H276.167C275.769 69.3483 274.459 68.3174 272.838 68.3174H272.827Z" fill="#9BCB46"/>
<path d="M262.111 67.2435C262.111 65.8797 261.123 64.881 259.791 64.881H257.332V69.6382H259.791C261.133 69.6382 262.111 68.6073 262.111 67.2435Z" fill="#9BCB46"/>
<path d="M294.97 68.4677C292.973 68.4677 291.502 69.9818 291.502 71.9577C291.502 73.9336 292.973 75.4477 294.97 75.4477C296.968 75.4477 298.418 73.9336 298.418 71.9577C298.418 69.9818 296.946 68.4677 294.97 68.4677Z" fill="#9BCB46"/>
<path d="M317.94 56.5587H249.901C248.676 56.5587 247.688 57.5467 247.688 58.7708V80.0545C247.688 81.2787 248.676 82.2667 249.901 82.2667H317.94C319.164 82.2667 320.152 81.2787 320.152 80.0545V58.7708C320.152 57.5467 319.164 56.5587 317.94 56.5587ZM261.885 77.5417L257.611 71.904H257.321V77.5417H254.711V62.4112H259.823C262.647 62.4112 264.795 64.473 264.795 67.2113C264.795 69.6275 263.087 71.4637 260.736 71.8396L265.139 77.5417H261.874H261.885ZM278.744 72.892H269.488C269.842 74.5135 271.152 75.5873 272.838 75.5873C274.266 75.5873 275.426 74.9323 275.909 73.9873H278.583C277.767 76.2424 275.576 77.7995 272.817 77.7995C269.423 77.7995 266.857 75.2759 266.857 71.947C266.857 68.618 269.423 66.0945 272.817 66.0945C276.21 66.0945 278.798 68.618 278.798 71.9685C278.798 72.2154 278.776 72.6235 278.733 72.892H278.744ZM287.442 68.5966H285.048V77.5417H282.589V68.5966H280.334V66.363H282.589V63.6032L285.048 63.077V66.363H287.442V68.5966ZM300.855 77.5417H298.396V75.8128C297.494 77.037 296.119 77.8102 294.465 77.8102C291.308 77.8102 288.967 75.2866 288.967 71.9577C288.967 68.6288 291.308 66.1052 294.465 66.1052C296.108 66.1052 297.494 66.8677 298.396 68.1026V66.3737H300.855V77.5525V77.5417ZM306.965 77.5417H304.506V66.363H306.965V77.5417ZM305.741 64.473C304.86 64.473 304.184 63.7965 304.184 62.9159C304.184 62.0353 304.86 61.3588 305.741 61.3588C306.621 61.3588 307.319 62.0139 307.319 62.9159C307.319 63.8179 306.643 64.473 305.741 64.473ZM313.086 77.5417H310.627V61.7561H313.086V77.5417Z" fill="#9BCB46"/>
<path d="M237.347 77.5417L236.391 76.4035C235.103 77.4451 233.524 77.8961 231.817 77.8961C227.339 77.8961 224.375 75.1793 224.375 71.1416C224.375 68.4462 225.835 66.8032 227.575 65.6113C226.684 64.2045 226.115 62.7763 226.115 61.3696C226.115 58.5883 228.445 56.5587 231.462 56.5587C234.48 56.5587 236.875 58.5561 236.875 61.3373C236.875 63.6998 235.167 65.1066 233.202 66.3307L236.552 70.304C236.617 70.0033 236.638 69.7026 236.638 69.3805V67.2865H240.644V69.3805C240.644 71.0557 240.161 72.5483 239.42 73.7725L242.587 77.5417H237.358H237.347ZM233.975 73.5363L229.819 68.5751C229.1 69.2301 228.627 70.0141 228.627 71.0235C228.627 72.6987 230.034 73.9551 232.032 73.9551C232.719 73.9551 233.406 73.8047 233.975 73.5363ZM230.088 61.3696C230.088 62.0246 230.421 62.7763 231.011 63.6139C232.085 62.9589 232.869 62.2394 232.869 61.3159C232.869 60.5427 232.246 59.9736 231.462 59.9736C230.679 59.9736 230.088 60.4783 230.088 61.3803V61.3696Z" fill="#9BCB46"/>
<path d="M0.380859 65.8798H7.61861C7.61861 71.6571 11.9355 75.9739 17.7128 75.9739C23.4901 75.9739 27.807 71.6571 27.807 65.8798V28.6709H34.8944V65.8798C34.8944 75.5122 27.4204 82.7499 17.6376 82.7499C7.85485 82.7499 0.380859 75.5122 0.380859 65.8798Z" fill="#27AAE1"/>
<path d="M78.8793 42.5343V81.8264H72.2536V74.3524C69.0213 79.5176 63.5447 82.7499 57.005 82.7499C45.751 82.7499 37.3643 73.8907 37.3643 62.1857C37.3643 50.4807 45.7618 41.6215 57.005 41.6215C63.5555 41.6215 69.0213 44.8538 72.2536 50.019V42.545H78.8793V42.5343ZM72.2536 62.175C72.2536 54.0889 66.2401 48.0002 58.2292 48.0002C50.2182 48.0002 44.1295 54.0889 44.1295 62.175C44.1295 70.2611 50.1431 76.3498 58.2292 76.3498C66.3152 76.3498 72.2536 70.2611 72.2536 62.175Z" fill="#27AAE1"/>
<path d="M125.946 62.1857C125.946 73.8907 117.473 82.7499 106.219 82.7499C99.6686 82.7499 94.2027 79.5176 90.9704 74.3524V96.463H84.3447V42.5343H90.9704V50.0083C94.2027 44.843 99.6793 41.6107 106.219 41.6107C117.462 41.6107 125.946 50.47 125.946 62.175V62.1857ZM119.084 62.1857C119.084 54.0996 113.07 48.0109 104.984 48.0109C96.898 48.0109 90.9596 54.0996 90.9596 62.1857C90.9596 70.2718 96.9732 76.3605 104.984 76.3605C112.995 76.3605 119.084 70.2718 119.084 62.1857Z" fill="#27AAE1"/>
<path d="M147.67 48.5478H138.661V81.8264H132.035V48.5478H123.562V42.5343H132.035V32.2897H138.661V42.5343H147.67V48.5478Z" fill="#27AAE1"/>
<path d="M149.324 30.2924C149.324 27.7474 151.246 25.9003 153.791 25.9003C156.336 25.9003 158.183 27.7474 158.183 30.2924C158.183 32.8374 156.261 34.6844 153.791 34.6844C151.322 34.6844 149.324 32.7622 149.324 30.2924ZM150.484 42.545H157.11V81.8372H150.484V42.5343V42.545Z" fill="#27AAE1"/>
<path d="M199.247 57.5574V81.8264H192.621V59.6407C192.621 52.6284 188.154 48.0109 181.142 48.0109C174.13 48.0109 169.126 52.7144 169.126 59.8018V81.8372H162.5V42.5343H169.126V48.8485C172.132 44.2309 177.137 41.6107 183.3 41.6107C192.858 41.6107 199.247 47.925 199.247 57.5574Z" fill="#27AAE1"/>
<path d="M203.017 30.2924C203.017 27.7474 204.939 25.9003 207.484 25.9003C210.029 25.9003 211.876 27.7474 211.876 30.2924C211.876 32.8374 209.954 34.6844 207.484 34.6844C205.014 34.6844 203.017 32.7622 203.017 30.2924ZM204.176 42.545H210.802V81.8372H204.176V42.5343V42.545Z" fill="#27AAE1"/>
<path d="M85.0213 17.6317C83.228 13.6584 80.5433 11.2852 80.5433 11.2852C69.9552 25.7822 79.4158 37.4657 80.3286 38.5288C80.1782 36.1985 79.9635 27.0386 85.0213 17.6317Z" fill="#9BCB46"/>
<path d="M108.958 0.4823C96.6408 4.9173 88.4151 12.6168 84.5063 23.3875C82.1868 29.7769 82.1331 35.4791 82.2405 37.7771C92.7428 35.2106 100.335 30.2924 104.813 23.1298C110.515 14.0128 109.484 3.75754 108.958 0.4823V0.4823Z" fill="#9BCB46"/>
</g>
<defs>
<clipPath id="clip0_40_991">
<rect width="319.782" height="95.9807" fill="white" transform="translate(0.380859 0.4823)"/>
</clipPath>
</defs>
</svg>
