<svg width="289" height="97" viewBox="0 0 289 97" fill="none" xmlns="http://www.w3.org/2000/svg">
<g clip-path="url(#clip0_40_965)">
<path d="M106.887 27.3174H113.681C113.681 30.8862 116.296 33.5011 119.811 33.5011C123.326 33.5011 126.049 30.8862 126.049 27.3174V0.793091H132.682V27.3174C132.682 34.5085 127.11 39.9098 119.758 39.9098C112.406 39.9098 106.887 34.5085 106.887 27.3174Z" fill="white"/>
<path d="M168.295 10.8241V39.2454H162.058V34.8407C159.775 37.9593 156.26 39.9098 152.08 39.9098C144.053 39.9098 138.095 33.5011 138.095 25.0347C138.095 16.5684 144.053 10.1597 152.08 10.1597C156.26 10.1597 159.775 12.1101 162.058 15.2288V10.8241H168.295ZM162.058 25.0347C162.058 20.0192 158.328 16.1719 153.313 16.1719C148.297 16.1719 144.514 20.0192 144.514 25.0347C144.514 30.0503 148.244 33.8976 153.313 33.8976C158.382 33.8976 162.058 30.0503 162.058 25.0347Z" fill="white"/>
<path d="M205.965 25.024C205.965 33.4904 199.953 39.8991 191.979 39.8991C187.746 39.8991 184.231 37.9486 181.948 34.83V49.823H175.711V10.8241H181.948V15.2288C184.231 12.1101 187.746 10.1597 191.979 10.1597C199.953 10.1597 205.965 16.5684 205.965 25.0347V25.024ZM199.502 25.024C199.502 20.0085 195.773 16.1611 190.757 16.1611C185.742 16.1611 181.959 20.0085 181.959 25.024C181.959 30.0395 185.742 33.8869 190.757 33.8869C195.773 33.8869 199.502 30.0395 199.502 25.024Z" fill="white"/>
<path d="M226.305 16.5041H220.229V39.2347H213.991V16.5041H208.258V10.8241H213.991V3.80453H220.229V10.8241H226.305V16.5041Z" fill="white"/>
<path d="M231.268 10.8241H237.505V39.2454H231.268V10.8241Z" fill="white"/>
<path d="M272.003 21.3481V39.2347H265.765V23.4165C265.765 19.0654 262.979 16.1719 258.692 16.1719C254.18 16.1719 251.169 19.119 251.169 23.5237V39.2347H244.932V10.8241H251.169V14.7787C253.398 11.7672 256.688 10.149 260.75 10.149C267.491 10.149 272.003 14.6072 272.003 21.3481Z" fill="white"/>
<path d="M278.915 10.8241H285.152V39.2454H278.915V10.8241Z" fill="white"/>
<path d="M230.432 4.43684C230.432 2.15414 232.157 0.4823 234.386 0.4823C236.615 0.4823 238.394 2.15414 238.394 4.43684C238.394 6.71954 236.669 8.39138 234.386 8.39138C232.103 8.39138 230.432 6.66596 230.432 4.43684Z" fill="white"/>
<path d="M278.079 4.43684C278.079 2.15414 279.805 0.4823 282.034 0.4823C284.263 0.4823 286.042 2.15414 286.042 4.43684C286.042 6.71954 284.316 8.39138 282.034 8.39138C279.751 8.39138 278.079 6.66596 278.079 4.43684Z" fill="white"/>
<path d="M27.2819 7.75909C22.5771 0.128648 14.0572 -0.417915 8.05571 2.97935C2.41861 6.17299 -1.72883 13.289 2.50435 21.3803C2.80442 21.9483 3.11521 22.4948 3.43672 23.0307L28.5893 64.1408L29.4895 62.8869C48.4156 36.4697 28.3107 9.10942 27.2819 7.75909Z" fill="url(#paint0_linear_40_965)"/>
<path d="M81.8093 1.10389C81.3592 1.06103 80.9091 1.03959 80.4804 1.03959L32.415 0.953857L32.8544 2.29347C41.2351 27.9605 72.0569 29.3644 78.6478 29.3644C79.4194 29.3644 79.8588 29.343 79.891 29.343H79.9124C86.4283 29.343 93.6515 25.0348 94.1123 15.5503C94.4231 9.19517 90.7043 1.96125 81.8093 1.10389Z" fill="url(#paint1_linear_40_965)"/>
<path d="M37.2486 65.7912C32.8332 73.6252 36.5412 81.3843 42.4891 85.0066C44.7611 86.3891 47.4939 87.2464 50.2696 87.2464C54.2884 87.2464 58.393 85.4674 61.3509 80.9449C61.7045 80.409 62.0261 79.8732 62.3476 79.3159L85.5282 37.1342L83.985 36.9841C52.1665 33.8655 37.345 65.5554 37.2486 65.7912Z" fill="url(#paint2_linear_40_965)"/>
<path d="M137.194 72.3392H110.67C111.281 78.5229 116.017 82.8739 122.255 82.8739C127.377 82.8739 131.503 80.0875 133.122 75.9615H136.69C134.686 81.8665 129.167 85.8747 122.255 85.8747C113.735 85.8747 107.262 79.466 107.262 70.9996C107.262 62.5332 113.724 56.1245 122.255 56.1245C130.785 56.1245 137.301 62.5332 137.301 70.9996C137.301 71.3854 137.248 71.9427 137.194 72.3392ZM110.723 69.4456H133.904C133.24 63.4227 128.385 59.136 122.255 59.136C116.125 59.136 111.388 63.4227 110.723 69.4456Z" fill="white"/>
<path d="M169.184 67.9989V85.2102H165.948V68.9419C165.948 63.0905 162.1 59.2431 156.313 59.2431C150.526 59.2431 146.229 63.1441 146.229 69.0491V85.2102H142.992V56.789H146.229V62.3618C148.286 58.4072 152.187 56.1245 157.256 56.1245C164.383 56.1245 169.184 60.8078 169.184 67.9881V67.9989Z" fill="white"/>
<path d="M204.625 72.3392H178.1C178.711 78.5229 183.448 82.8739 189.685 82.8739C194.808 82.8739 198.934 80.0875 200.552 75.9615H204.121C202.117 81.8665 196.598 85.8747 189.685 85.8747C181.165 85.8747 174.692 79.466 174.692 70.9996C174.692 62.5332 181.155 56.1245 189.685 56.1245C198.216 56.1245 204.732 62.5332 204.732 70.9996C204.732 71.3854 204.678 71.9427 204.625 72.3392ZM178.154 69.4456H201.335C200.67 63.4227 195.815 59.136 189.685 59.136C183.555 59.136 178.818 63.4227 178.154 69.4456Z" fill="white"/>
<path d="M223.69 56.3496V59.6933C217.56 59.6933 213.659 63.9264 213.659 70.4423V85.2102H210.423V56.789H213.659V62.919C215.61 58.793 219.179 56.3496 223.69 56.3496Z" fill="white"/>
<path d="M255.058 56.7997V82.1559C255.058 90.7937 249.314 96.4737 240.623 96.4737C233.271 96.4737 228.084 92.4013 226.53 85.8854H229.874C231.16 90.5151 235.114 93.4622 240.623 93.4622C247.364 93.4622 251.822 88.9504 251.822 82.0916V78.1906C249.486 82.6489 245.027 85.5424 239.562 85.5424C231.32 85.5424 225.126 79.1873 225.126 70.8281C225.126 62.4689 231.31 56.1245 239.562 56.1245C245.017 56.1245 249.475 59.0181 251.822 63.4763V56.789H255.058V56.7997ZM251.822 70.8388C251.822 64.1515 246.86 59.0824 240.173 59.0824C233.485 59.0824 228.47 64.1515 228.47 70.8388C228.47 77.5262 233.485 82.5953 240.173 82.5953C246.86 82.5953 251.822 77.5262 251.822 70.8388Z" fill="white"/>
<path d="M288.774 56.7997L271.059 95.7985H267.543L272.334 85.2102L259.463 56.789H263.192L274.166 81.47L285.141 56.789H288.763L288.774 56.7997Z" fill="white"/>
</g>
<defs>
<linearGradient id="paint0_linear_40_965" x1="75.24" y1="-18.1008" x2="22.3306" y2="29.6966" gradientUnits="userSpaceOnUse">
<stop offset="0.33" stop-color="#B2D235"/>
<stop offset="0.93" stop-color="#00B0F0"/>
</linearGradient>
<linearGradient id="paint1_linear_40_965" x1="84.4885" y1="-7.86617" x2="31.5684" y2="39.9313" gradientUnits="userSpaceOnUse">
<stop offset="0.33" stop-color="#B2D235"/>
<stop offset="0.93" stop-color="#00B0F0"/>
</linearGradient>
<linearGradient id="paint2_linear_40_965" x1="107.927" y1="18.0902" x2="55.0172" y2="65.8876" gradientUnits="userSpaceOnUse">
<stop offset="0.33" stop-color="#B2D235"/>
<stop offset="0.93" stop-color="#00B0F0"/>
</linearGradient>
<clipPath id="clip0_40_965">
<rect width="288.006" height="95.9807" fill="white" transform="translate(0.768555 0.4823)"/>
</clipPath>
</defs>
</svg>
