<svg width="292" height="97" viewBox="0 0 292 97" fill="none" xmlns="http://www.w3.org/2000/svg">
<g clip-path="url(#clip0_40_937)">
<path d="M108.279 30.8862H115.231C115.231 34.5276 117.91 37.207 121.49 37.207C125.069 37.207 127.873 34.5276 127.873 30.8862V3.772H134.649V30.8862C134.649 38.2311 128.949 43.7553 121.438 43.7553C113.928 43.7553 108.279 38.2311 108.279 30.8862Z" fill="white"/>
<path d="M171.042 14.0239V43.0622H164.659V38.5621C162.321 41.7484 158.742 43.745 154.47 43.745C146.266 43.745 140.173 37.1966 140.173 28.5379C140.173 19.8791 146.266 13.3307 154.47 13.3307C158.742 13.3307 162.332 15.3273 164.659 18.5136V14.0135H171.042V14.0239ZM164.659 28.5482C164.659 23.4274 160.842 19.4964 155.721 19.4964C150.601 19.4964 146.721 23.4274 146.721 28.5482C146.721 33.669 150.539 37.6001 155.721 37.6001C160.904 37.6001 164.659 33.669 164.659 28.5482Z" fill="white"/>
<path d="M209.536 28.5482C209.536 37.2069 203.381 43.7553 195.24 43.7553C190.915 43.7553 187.326 41.7587 184.988 38.5725V53.8934H178.615V14.0239H184.988V18.5239C187.326 15.3377 190.915 13.3411 195.24 13.3411C203.381 13.3411 209.536 19.8895 209.536 28.5482ZM202.926 28.5482C202.926 23.4274 199.109 19.4964 193.988 19.4964C188.867 19.4964 184.988 23.4274 184.988 28.5482C184.988 33.669 188.857 37.6001 193.988 37.6001C199.119 37.6001 202.926 33.669 202.926 28.5482Z" fill="white"/>
<path d="M230.329 19.8377H224.122V43.0726H217.749V19.8377H211.884V14.0342H217.749V6.85479L224.122 5.48926V14.0239H230.329V19.8274V19.8377Z" fill="white"/>
<path d="M234.54 5.08581C234.54 2.74784 236.309 1.04092 238.585 1.04092C240.861 1.04092 242.682 2.74784 242.682 5.08581C242.682 7.42377 240.913 9.13069 238.585 9.13069C236.257 9.13069 234.54 7.3617 234.54 5.08581ZM235.399 14.0239H241.771V43.0622H235.399V14.0239Z" fill="white"/>
<path d="M277.027 24.793V43.0726H270.654V26.9034C270.654 22.4654 267.809 19.4964 263.423 19.4964C258.809 19.4964 255.737 22.5171 255.737 27.0172V43.0726H249.364V14.0239H255.737V18.0687C258.013 14.9963 261.375 13.3411 265.533 13.3411C272.423 13.3411 277.037 17.8929 277.037 24.7826L277.027 24.793Z" fill="white"/>
<path d="M283.233 5.08581C283.233 2.74784 285.002 1.04092 287.278 1.04092C289.554 1.04092 291.375 2.74784 291.375 5.08581C291.375 7.42377 289.606 9.13069 287.278 9.13069C284.951 9.13069 283.233 7.3617 283.233 5.08581ZM284.092 14.0239H290.465V43.0622H284.092V14.0239Z" fill="white"/>
<path d="M205.801 61.7142V64.3729H197.143V47.9657H199.967V61.7039H205.791L205.801 61.7142Z" fill="white"/>
<path d="M206.991 58.3211C206.991 54.7107 209.774 51.9692 213.477 51.9692C217.181 51.9692 219.964 54.7003 219.964 58.3211C219.964 61.9418 217.16 64.6729 213.477 64.6729C209.795 64.6729 206.991 61.9418 206.991 58.3211ZM217.212 58.3211C217.212 56.1796 215.619 54.5451 213.477 54.5451C211.336 54.5451 209.722 56.19 209.722 58.3211C209.722 60.4521 211.336 62.097 213.477 62.097C215.619 62.097 217.212 60.4521 217.212 58.3211Z" fill="white"/>
<path d="M234.571 52.2589V63.0797C234.571 66.7626 232.098 69.1936 228.364 69.1936C225.198 69.1936 222.963 67.4557 222.281 64.6729H225.012C225.467 65.935 226.729 66.7419 228.364 66.7419C230.505 66.7419 231.902 65.2936 231.902 63.0591V62.2728C230.929 63.5763 229.429 64.3625 227.65 64.3625C224.226 64.3625 221.681 61.7039 221.681 58.1762C221.681 54.6486 224.226 51.9692 227.65 51.9692C229.429 51.9692 230.929 52.7555 231.902 54.0589V52.2486H234.56L234.571 52.2589ZM231.912 58.1762C231.912 56.0141 230.319 54.4003 228.177 54.4003C226.036 54.4003 224.422 56.0141 224.422 58.1762C224.422 60.3383 226.036 61.9314 228.177 61.9314C230.319 61.9314 231.912 60.3176 231.912 58.1762Z" fill="white"/>
<path d="M237.333 48.5244C237.333 47.5519 238.067 46.8381 239.019 46.8381C239.971 46.8381 240.736 47.5519 240.736 48.5244C240.736 49.4968 240.002 50.2106 239.019 50.2106C238.036 50.2106 237.333 49.4761 237.333 48.5244ZM237.685 52.2589H240.343V64.3832H237.685V52.2589Z" fill="white"/>
<path d="M242.754 60.8142H245.464C245.464 61.6728 246.178 62.3556 247.109 62.3556C247.967 62.3556 248.65 61.8073 248.65 61.0728C248.65 60.1728 247.75 59.6969 246.509 59.3556C244.729 58.9004 242.919 57.9797 242.919 55.621C242.919 53.2624 244.822 51.9589 247.036 51.9589C249.436 51.9589 251.195 53.6037 251.195 55.6417H248.485C248.485 54.8762 247.864 54.2658 247.005 54.2658C246.25 54.2658 245.629 54.7934 245.629 55.4555C245.629 56.3141 246.488 56.8107 247.812 57.1417C249.788 57.6383 251.35 58.6624 251.35 60.8245C251.35 63.2246 249.447 64.6522 247.067 64.6522C244.543 64.6522 242.743 62.9453 242.743 60.8038L242.754 60.8142Z" fill="white"/>
<path d="M260.32 54.6796H257.733V64.3832H255.075V54.6796H252.623V52.2589H255.075V49.2589L257.733 48.6899V52.2589H260.32V54.6796Z" fill="white"/>
<path d="M262.078 48.5244C262.078 47.5519 262.813 46.8381 263.764 46.8381C264.716 46.8381 265.482 47.5519 265.482 48.5244C265.482 49.4968 264.747 50.2106 263.764 50.2106C262.782 50.2106 262.078 49.4761 262.078 48.5244ZM262.43 52.2589H265.089V64.3832H262.43V52.2589Z" fill="white"/>
<path d="M267.529 58.3211C267.529 54.7107 270.312 51.9692 274.016 51.9692C277.347 51.9692 279.954 54.2038 280.409 57.3176H277.647C277.223 55.7038 275.795 54.5348 274.005 54.5348C271.864 54.5348 270.25 56.1796 270.25 58.3107C270.25 60.4418 271.864 62.0866 274.005 62.0866C275.785 62.0866 277.212 60.9176 277.647 59.3038H280.409C279.954 62.4177 277.347 64.6522 274.016 64.6522C270.302 64.6522 267.529 61.9211 267.529 58.3004V58.3211Z" fill="white"/>
<path d="M281.961 60.8142H284.671C284.671 61.6728 285.385 62.3556 286.316 62.3556C287.174 62.3556 287.857 61.8073 287.857 61.0728C287.857 60.1728 286.957 59.6969 285.716 59.3556C283.936 58.9004 282.126 57.9797 282.126 55.621C282.126 53.2624 284.03 51.9589 286.243 51.9589C288.643 51.9589 290.402 53.6037 290.402 55.6417H287.692C287.692 54.8762 287.071 54.2658 286.212 54.2658C285.457 54.2658 284.836 54.7934 284.836 55.4555C284.836 56.3141 285.695 56.8107 287.019 57.1417C288.995 57.6383 290.557 58.6624 290.557 60.8245C290.557 63.2246 288.654 64.6522 286.274 64.6522C283.75 64.6522 281.95 62.9453 281.95 60.8038L281.961 60.8142Z" fill="white"/>
<path d="M90.848 65.7901C93.5997 65.7901 95.8342 63.5556 95.8342 60.8039V7.1962C95.8342 6.17205 94.4997 5.76859 93.9308 6.62723L56.4302 64.197C55.9854 64.8798 56.4716 65.7901 57.2992 65.7901H90.8583H90.848Z" fill="#F7941D"/>
<path d="M30.5371 5.46858V39.0277C30.5371 39.8449 31.4475 40.3415 32.1302 39.8967L89.6793 2.38578C90.538 1.82715 90.1449 0.4823 89.1104 0.4823H35.5234C32.7716 0.4823 30.5371 2.71681 30.5371 5.46858Z" fill="#F15A29"/>
<path d="M0.464205 65.5005C0.546965 65.7901 0.774554 65.7901 0.846969 65.7901H26.2128C26.7818 65.7901 27.2473 65.3246 27.2473 64.7556V49.6106C27.2473 48.7933 26.337 48.2968 25.6542 48.7416L0.629725 65.0556C0.567655 65.097 0.381445 65.2212 0.464205 65.5005Z" fill="#F7941D"/>
<path d="M31.5716 69.6695C31.0026 69.6695 30.5371 70.135 30.5371 70.704V96.0492C30.5371 96.1216 30.5371 96.3492 30.8268 96.4319C31.0854 96.5044 31.2095 96.3699 31.2819 96.2664L47.5753 71.2626C48.0201 70.5799 47.5339 69.6695 46.7063 69.6695H31.5716Z" fill="#F15A29"/>
<path d="M30.5371 45.545V64.7556C30.5371 65.3246 31.0026 65.7901 31.5716 65.7901H50.7719C51.1236 65.7901 51.4443 65.6143 51.6409 65.3246L92.0587 5.17893C92.5759 4.4134 91.6552 3.50304 90.8897 4.00994L31.0026 44.6864C30.713 44.8726 30.5371 45.2036 30.5371 45.5554V45.545Z" fill="#EF4133"/>
</g>
<defs>
<clipPath id="clip0_40_937">
<rect width="290.932" height="95.9807" fill="white" transform="translate(0.443359 0.4823)"/>
</clipPath>
</defs>
</svg>
