<svg width="41" height="41" viewBox="0 0 41 41" fill="none" xmlns="http://www.w3.org/2000/svg">
<path d="M35.2778 7.99836V33.5866C35.2778 34.1716 35.0454 34.7327 34.6317 35.1464C34.2181 35.5601 33.657 35.7925 33.0719 35.7925H7.48371C6.89868 35.7925 6.3376 35.5601 5.92392 35.1464C5.51024 34.7327 5.27783 34.1716 5.27783 33.5866V7.99836C5.27783 7.41333 5.51024 6.85225 5.92392 6.43857C6.3376 6.02489 6.89868 5.79248 7.48371 5.79248H33.0719C33.657 5.79248 34.2181 6.02489 34.6317 6.43857C35.0454 6.85225 35.2778 7.41333 35.2778 7.99836ZM14.1014 17.2631H9.6896V31.3807H14.1014V17.2631ZM14.4984 12.4101C14.5007 12.0764 14.4373 11.7455 14.3118 11.4363C14.1862 11.1271 14.001 10.8457 13.7666 10.6081C13.5323 10.3704 13.2534 10.1813 12.946 10.0515C12.6386 9.92163 12.3086 9.85361 11.9749 9.8513H11.8955C11.2168 9.8513 10.566 10.1209 10.0861 10.6008C9.60625 11.0806 9.33666 11.7315 9.33666 12.4101C9.33666 13.0888 9.60625 13.7396 10.0861 14.2195C10.566 14.6994 11.2168 14.969 11.8955 14.969C12.2292 14.9772 12.5613 14.9195 12.8728 14.7994C13.1842 14.6792 13.4689 14.4988 13.7107 14.2686C13.9524 14.0383 14.1464 13.7627 14.2815 13.4574C14.4167 13.1522 14.4904 12.8233 14.4984 12.4895V12.4101ZM30.8661 22.8042C30.8661 18.5601 28.1661 16.9101 25.4837 16.9101C24.6055 16.8662 23.731 17.0532 22.9476 17.4527C22.1642 17.8521 21.4992 18.45 21.019 19.1866H20.8955V17.2631H16.7484V31.3807H21.1602V23.8719C21.0964 23.1029 21.3387 22.3397 21.8343 21.7483C22.3299 21.1568 23.0389 20.7848 23.8072 20.7131H23.9749C25.3778 20.7131 26.419 21.5954 26.419 23.819V31.3807H30.8308L30.8661 22.8042Z" fill="#8DC63F"/>
</svg>
