<svg width="24" height="25" viewBox="0 0 24 25" fill="none" xmlns="http://www.w3.org/2000/svg">
<path d="M16 8.60718C17.5913 8.60718 19.1174 9.23932 20.2426 10.3645C21.3679 11.4898 22 13.0159 22 14.6072V21.6072H18V14.6072C18 14.0767 17.7893 13.568 17.4142 13.193C17.0391 12.8179 16.5304 12.6072 16 12.6072C15.4696 12.6072 14.9609 12.8179 14.5858 13.193C14.2107 13.568 14 14.0767 14 14.6072V21.6072H10V14.6072C10 13.0159 10.6321 11.4898 11.7574 10.3645C12.8826 9.23932 14.4087 8.60718 16 8.60718V8.60718Z" stroke="white" stroke-width="2" stroke-linecap="round" stroke-linejoin="round"/>
<path d="M6 9.60718H2V21.6072H6V9.60718Z" stroke="white" stroke-width="2" stroke-linecap="round" stroke-linejoin="round"/>
<path d="M4 6.60718C5.10457 6.60718 6 5.71175 6 4.60718C6 3.50261 5.10457 2.60718 4 2.60718C2.89543 2.60718 2 3.50261 2 4.60718C2 5.71175 2.89543 6.60718 4 6.60718Z" stroke="white" stroke-width="2" stroke-linecap="round" stroke-linejoin="round"/>
</svg>
