<svg width="19" height="19" viewBox="0 0 19 19" fill="none" xmlns="http://www.w3.org/2000/svg">
<g clip-path="url(#clip0_1_246)">
<path d="M18.3415 4.36867L12.8825 9.79254L18.3415 15.2164C18.4402 15.0101 18.5001 14.7821 18.5001 14.5386V5.04645C18.5001 4.80292 18.4402 4.57493 18.3415 4.36867Z" fill="white"/>
<path d="M16.918 3.4646H2.08208C1.83856 3.4646 1.61057 3.52447 1.40431 3.62315L8.38152 10.5652C8.99844 11.1821 10.0017 11.1821 10.6186 10.5652L17.5958 3.62315C17.3895 3.52447 17.1615 3.4646 16.918 3.4646Z" fill="white"/>
<path d="M0.658555 4.36867C0.559871 4.57493 0.5 4.80292 0.5 5.04645V14.5386C0.5 14.7822 0.559871 15.0102 0.658555 15.2164L6.11758 9.79254L0.658555 4.36867Z" fill="white"/>
<path d="M12.1368 10.5385L11.3643 11.311C10.3363 12.3389 8.66372 12.3389 7.63579 11.311L6.86333 10.5385L1.40431 15.9624C1.61057 16.061 1.83856 16.1209 2.08208 16.1209H16.918C17.1615 16.1209 17.3895 16.061 17.5958 15.9624L12.1368 10.5385Z" fill="white"/>
</g>
<defs>
<clipPath id="clip0_1_246">
<rect width="18" height="18" fill="white" transform="translate(0.5 0.79248)"/>
</clipPath>
</defs>
</svg>
