<svg width="299" height="97" viewBox="0 0 299 97" fill="none" xmlns="http://www.w3.org/2000/svg">
<g clip-path="url(#clip0_40_1017)">
<path d="M117.043 21.3118H102.743C101.014 21.3118 99.5459 22.769 99.5459 24.5085V71.5782C99.5459 73.3065 101.014 74.775 102.743 74.775C104.471 74.775 106.007 73.3404 106.007 71.5782V53.166L117.032 53.0418C125.764 53.0418 132.857 45.9367 132.857 37.2163C132.857 28.4959 125.752 21.3118 117.032 21.3118H117.043ZM126.486 37.2163C126.486 42.4011 122.251 46.6709 117.043 46.7274H106.018V27.773H117.043C122.251 27.773 126.486 32.0089 126.486 37.2163Z" fill="#EE6B25"/>
<path d="M164.848 36.4708C163.052 36.4708 161.651 37.8715 161.651 39.6675V41.0682C158.364 38.12 154.162 36.4708 149.824 36.4708C139.782 36.4708 131.615 45.0556 131.615 55.6172C131.615 66.1788 139.782 74.7637 149.824 74.7637C154.139 74.7637 158.352 73.0919 161.651 70.1098V71.5782C161.651 73.3065 163.108 74.775 164.848 74.775C166.587 74.775 168.044 73.3178 168.044 71.5782V39.6675C168.044 37.8715 166.644 36.4708 164.848 36.4708ZM161.651 55.6172C161.651 62.6545 156.342 68.3815 149.824 68.3815C143.306 68.3815 137.997 62.6545 137.997 55.6172C137.997 48.5799 143.295 42.7852 149.824 42.7852C156.353 42.7852 161.651 48.546 161.651 55.6172Z" fill="#EE6B25"/>
<path d="M204.575 37.2615L204.202 36.9904C203.886 36.8323 203.49 36.6289 203.039 36.516L202.248 36.4708C202.067 36.4708 201.886 36.5047 201.717 36.5612L201.435 36.6176C200.203 36.8436 199.277 38.425 199.277 39.5884V58.7801C199.209 64.0891 195.03 68.2347 189.766 68.2347C184.502 68.2347 180.402 63.9987 180.402 58.7914V39.5884C180.402 37.8376 178.967 36.4708 177.137 36.4708C175.443 36.4708 174.02 37.9054 174.02 39.5884V58.7914C174.02 67.4778 181.079 74.6055 189.777 74.6959C193.177 74.6959 196.464 73.5889 199.232 71.5443C198.622 77.486 193.527 82.1624 187.394 82.1624C185.666 82.1624 183.847 81.7332 182.186 80.9086L181.972 80.8408C180.323 80.4342 178.764 81.078 178.097 82.4222C177.307 83.8681 177.849 85.7319 179.374 86.6921L179.498 86.7598C182.13 87.9459 184.784 88.5446 187.394 88.5446C197.481 88.5446 205.682 80.4455 205.682 70.4825V39.5771C205.682 39.1027 205.546 38.6057 205.309 38.1991C205.117 37.7585 204.789 37.4422 204.597 37.2502L204.575 37.2615Z" fill="#EE6B25"/>
<path d="M236.768 39.7466C236.768 37.9618 235.367 36.5499 233.571 36.5499C227.335 36.5499 222.975 39.9951 220.377 42.9659V39.7466C220.377 37.9844 218.977 36.5499 217.26 36.5499C215.396 36.5499 213.995 37.928 213.995 39.7466V71.5895C213.995 73.4082 215.396 74.7863 217.26 74.7863C218.977 74.7863 220.377 73.3517 220.377 71.5895V56.1142C220.377 56.1142 220.411 56.0465 220.445 55.9674C221.044 54.2617 222.365 50.9746 224.478 48.1507C227.223 44.5925 230.114 42.9433 233.571 42.9433C235.299 42.9433 236.768 41.4861 236.768 39.7466Z" fill="#EE6B25"/>
<path d="M267.876 36.4708C266.08 36.4708 264.679 37.8715 264.679 39.6675V41.0682C261.392 38.12 257.19 36.4708 252.852 36.4708C242.81 36.4708 234.644 45.0556 234.644 55.6172C234.644 66.1788 242.81 74.7637 252.852 74.7637C257.167 74.7637 261.381 73.0919 264.679 70.1098V71.5782C264.679 73.3065 266.136 74.775 267.876 74.775C269.615 74.775 271.073 73.3178 271.073 71.5782V39.6675C271.073 37.8715 269.672 36.4708 267.876 36.4708ZM264.679 55.6172C264.679 62.6545 259.37 68.3815 252.852 68.3815C246.335 68.3815 241.026 62.6545 241.026 55.6172C241.026 48.5799 246.335 42.7852 252.852 42.7852C259.37 42.7852 264.679 48.546 264.679 55.6172Z" fill="#EE6B25"/>
<path d="M281.013 24.9265C279.285 24.9265 277.816 26.3949 277.816 28.1232V29.7837C277.816 31.591 279.274 33.1272 281.013 33.1272C282.753 33.1272 284.278 31.6249 284.278 29.7837V28.1232C284.278 26.361 282.809 24.9265 281.013 24.9265Z" fill="#EE6B25"/>
<path d="M281.013 36.4708C279.217 36.4708 277.816 37.8715 277.816 39.6675V71.5782C277.816 73.3065 279.274 74.775 281.013 74.775C282.753 74.775 284.278 73.3404 284.278 71.5782V39.6675C284.278 37.8489 282.877 36.4708 281.013 36.4708Z" fill="#EE6B25"/>
<path d="M294.806 21.3118C293.078 21.3118 291.609 22.769 291.609 24.5085V71.5782C291.609 73.3065 293.067 74.775 294.806 74.775C296.546 74.775 298.071 73.3404 298.071 71.5782V24.5085C298.071 22.7464 296.602 21.3118 294.806 21.3118Z" fill="#EE6B25"/>
<path d="M49.2904 27.581C49.4937 29.1624 49.5389 30.7777 49.3469 32.4382C48.0817 43.2144 38.2656 50.9634 27.4894 49.6869C24.7445 49.3707 22.282 51.3248 21.9545 54.0584C21.6382 56.792 23.5924 59.2658 26.326 59.5934C27.5007 59.7289 28.6642 59.7967 29.8164 59.7967C44.6252 59.7967 57.4686 48.6703 59.2533 33.613C59.4001 32.3478 59.4566 31.1053 59.4453 29.8628C56.9941 28.3604 54.1137 27.4793 51.0412 27.4793C50.4538 27.4793 49.8778 27.5245 49.3017 27.581H49.2904Z" fill="url(#paint0_linear_40_1017)"/>
<path d="M72.9442 23.7178C72.7409 23.3676 72.4924 23.0288 72.1987 22.7238C66.5847 17.1098 59.1294 14.0147 51.2336 14.0147C51.1997 14.0147 51.1659 14.0147 51.132 14.0147C51.0981 14.0147 51.0642 14.0147 51.0303 14.0147C34.6739 14.0147 21.3787 27.3212 21.3787 43.6663C21.3787 43.8018 21.4126 43.9261 21.4239 44.0616C21.4239 44.0842 21.4239 44.1181 21.4239 44.1407V80.8295C21.4239 83.9472 18.8937 86.4775 15.776 86.4775C12.6584 86.4775 10.1281 83.9472 10.1281 80.8295V61.909C10.1281 61.7848 10.162 61.6605 10.162 61.5363V30.6083C10.162 19.5835 18.9275 10.6034 29.7377 10.4565C29.8393 10.4565 29.9523 10.4452 30.0539 10.4565C30.133 10.4565 30.2234 10.4565 30.3024 10.4678C30.9011 10.4791 31.4998 10.513 32.0985 10.5921C34.6175 10.8858 36.9557 11.6652 39.068 12.7948C42.8182 11.3376 46.8621 10.5356 51.0303 10.5356C51.3692 10.5356 51.708 10.5469 52.0469 10.5582C51.9453 10.4452 51.8323 10.321 51.7306 10.208C47.0768 5.09099 40.6494 1.5554 33.262 0.68562C32.2679 0.572662 31.2852 0.504887 30.3137 0.493591C30.2799 0.493591 30.246 0.493591 30.2008 0.493591C29.9636 0.493591 29.7264 0.493591 29.4891 0.493591C14.8046 0.640437 2.09676 11.6878 0.334607 26.666C0.30072 26.9823 0.30072 27.2873 0.323311 27.6036C0.221649 28.5976 0.176466 29.6029 0.176466 30.6196V56.6113C0.176466 56.7355 0.142578 56.8598 0.142578 56.984V80.8521C0.142578 89.4709 7.15729 96.4743 15.7647 96.4743C24.3721 96.4743 31.3868 89.4596 31.3868 80.8521V44.152C31.3868 33.0708 40.2428 24.0454 51.132 24.0002C61.9421 24.0567 70.7189 32.8562 70.7189 43.6776C70.7189 54.499 61.8856 63.3662 51.0303 63.3662C49.2117 63.3662 47.4043 63.1177 45.6761 62.632C43.0329 61.8864 40.2767 63.4227 39.5198 66.0772C38.7743 68.7317 40.3106 71.4766 42.9651 72.2334C45.5744 72.9676 48.2967 73.3517 51.0303 73.3517C67.3867 73.3517 80.6818 60.0452 80.6818 43.7001C80.6818 36.019 77.7449 29.0156 72.9442 23.7517V23.7178Z" fill="url(#paint1_linear_40_1017)"/>
</g>
<defs>
<linearGradient id="paint0_linear_40_1017" x1="67.7139" y1="26.3836" x2="33.4423" y2="51.8557" gradientUnits="userSpaceOnUse">
<stop stop-color="#F6BC18"/>
<stop offset="1" stop-color="#EE6B25"/>
</linearGradient>
<linearGradient id="paint1_linear_40_1017" x1="-2.94118" y1="12.6027" x2="57.3786" y2="77.7458" gradientUnits="userSpaceOnUse">
<stop stop-color="#E53F32"/>
<stop offset="1" stop-color="#C82A40"/>
</linearGradient>
<clipPath id="clip0_40_1017">
<rect width="297.939" height="95.9807" fill="white" transform="translate(0.130859 0.4823)"/>
</clipPath>
</defs>
</svg>
