<svg width="179" height="180" viewBox="0 0 179 180" fill="none" xmlns="http://www.w3.org/2000/svg">
<path d="M89.5 179.65C138.929 179.65 179 139.579 179 90.1499C179 40.7204 138.929 0.649902 89.5 0.649902C40.0705 0.649902 0 40.7204 0 90.1499C0 139.579 40.0705 179.65 89.5 179.65Z" fill="white" fill-opacity="0.06"/>
<path d="M89.5 149.65C122.361 149.65 149 123.011 149 90.1499C149 57.289 122.361 30.6499 89.5 30.6499C56.6391 30.6499 30 57.289 30 90.1499C30 123.011 56.6391 149.65 89.5 149.65Z" stroke="white" stroke-width="3" stroke-miterlimit="10"/>
<path d="M82.5 76.0498L103.5 90.1499L82.5 104.25V76.0498Z" fill="white"/>
</svg>
