<svg width="41" height="41" viewBox="0 0 41 41" fill="none" xmlns="http://www.w3.org/2000/svg">
<path d="M33.5321 13.9926C33.5524 14.2865 33.5524 14.5803 33.5524 14.8769C33.5524 23.9134 26.6731 34.3352 14.0941 34.3352V34.3298C10.3782 34.3352 6.7395 33.2708 3.61133 31.2639C4.15165 31.3289 4.69468 31.3614 5.23906 31.3628C8.31849 31.3655 11.3099 30.3322 13.7325 28.4296C10.8061 28.3741 8.23994 26.466 7.34347 23.6805C8.36859 23.8782 9.42486 23.8376 10.431 23.5627C7.24055 22.9181 4.9452 20.1149 4.9452 16.8594C4.9452 16.8296 4.9452 16.8012 4.9452 16.7728C5.89584 17.3022 6.96023 17.5961 8.049 17.6286C5.04406 15.6203 4.11779 11.6228 5.93241 8.49732C9.40454 12.7698 14.5274 15.3671 20.0268 15.642C19.4756 13.2668 20.2286 10.7778 22.0053 9.10806C24.7597 6.51885 29.0917 6.65156 31.6809 9.40462C33.2125 9.10264 34.6805 8.54065 36.0238 7.74439C35.5133 9.32744 34.4448 10.6721 33.0175 11.5266C34.3731 11.3668 35.6975 11.0039 36.9447 10.4501C36.0265 11.8259 34.87 13.0244 33.5321 13.9926Z" fill="#8DC63F"/>
</svg>
