<svg width="25" height="25" viewBox="0 0 25 25" fill="none" xmlns="http://www.w3.org/2000/svg">
<g clip-path="url(#clip0_1_283)">
<path d="M23.7568 3.60722C22.7992 4.2827 21.7389 4.79933 20.6168 5.13722C20.0146 4.44473 19.2142 3.95392 18.3239 3.73115C17.4336 3.50838 16.4963 3.56442 15.6389 3.89168C14.7815 4.21893 14.0453 4.80163 13.5298 5.56094C13.0144 6.32026 12.7445 7.21956 12.7568 8.13722V9.13722C10.9995 9.18279 9.25811 8.79304 7.68784 8.00267C6.11758 7.2123 4.76715 6.04586 3.75684 4.60722C3.75684 4.60722 -0.243164 13.6072 8.75684 17.6072C6.69736 19.0052 4.24399 19.7062 1.75684 19.6072C10.7568 24.6072 21.7568 19.6072 21.7568 8.10722C21.7559 7.82868 21.7291 7.55082 21.6768 7.27722C22.6974 6.27072 23.4177 4.99994 23.7568 3.60722V3.60722Z" stroke="white" stroke-width="2" stroke-linecap="round" stroke-linejoin="round"/>
</g>
<defs>
<clipPath id="clip0_1_283">
<rect width="24" height="24" fill="white" transform="translate(0.756836 0.607178)"/>
</clipPath>
</defs>
</svg>
