<svg width="41" height="41" viewBox="0 0 41 41" fill="none" xmlns="http://www.w3.org/2000/svg">
<path d="M20.3407 6.27637C12.1072 6.27637 5.40654 12.7302 5.40364 20.6619C5.4017 23.1983 6.09074 25.6738 7.39719 27.8541L5.27783 35.3086L13.1969 33.3083C15.3997 34.4606 17.849 35.0616 20.3349 35.0599H20.3407C28.5743 35.0599 35.2749 28.6051 35.2778 20.6735C35.2798 16.8315 33.7275 13.2151 30.9065 10.4967C28.0865 7.77734 24.3365 6.27733 20.3407 6.27637ZM20.3407 32.6299H20.3359C18.1082 32.6299 15.923 32.0531 14.0165 30.9635L13.5617 30.7041L8.86428 31.8906L10.1185 27.4777L9.82332 27.0257C8.58354 25.1349 7.92357 22.9229 7.92461 20.6619C7.92751 14.0686 13.4978 8.70637 20.3456 8.70637C23.6611 8.70733 26.7782 9.95282 29.123 12.2125C31.4678 14.4722 32.7578 17.477 32.7559 20.6725C32.753 27.2657 27.1836 32.6299 20.3398 32.6299H20.3407ZM27.1507 23.6735C26.7772 23.4944 24.9423 22.6244 24.5998 22.5035C24.2582 22.3844 24.0094 22.3225 23.7607 22.6825C23.513 23.0425 22.7969 23.8525 22.5801 24.0915C22.3614 24.3315 22.1436 24.3606 21.7701 24.1815C21.3965 24.0015 20.1936 23.6222 18.7691 22.397C17.6591 21.4448 16.9101 20.268 16.6923 19.907C16.4746 19.548 16.6691 19.3535 16.8559 19.1744C17.0233 19.0148 17.2294 18.7554 17.4152 18.5454C17.6011 18.3354 17.663 18.1854 17.7888 17.9454C17.9127 17.7064 17.8507 17.4954 17.7569 17.3164C17.663 17.1354 16.9178 15.3664 16.6053 14.6473C16.3033 13.9467 15.9956 14.0406 15.7662 14.0289C15.5485 14.0193 15.3007 14.0164 15.0501 14.0164C14.8033 14.0164 14.3978 14.1064 14.0553 14.4664C13.7136 14.8264 12.7488 15.6954 12.7488 17.4644C12.7488 19.2344 14.0862 20.9435 14.273 21.1835C14.4598 21.4225 16.9053 25.0544 20.6494 26.6125C21.5398 26.9812 22.2346 27.2028 22.7775 27.3693C23.6717 27.6431 24.4856 27.6035 25.1282 27.5115C25.8443 27.408 27.3365 26.6425 27.6462 25.8035C27.9578 24.9644 27.9578 24.2444 27.8649 24.0944C27.774 23.9444 27.5243 23.8544 27.1507 23.6735Z" fill="#8DC63F"/>
</svg>
